<svg xmlns="http://www.w3.org/2000/svg" width="375" viewBox="0 0 375 375" height="375" version="1.0"><g fill="#5271FF"><g><g><path d="M 12.304688 -7.441406 L 7.382812 -7.441406 L 9.84375 -14.367188 Z M 19.574219 0 L 11.675781 -19.460938 L 8.042969 -19.460938 L 0.144531 0 L 4.75 0 L 6.152344 -3.921875 L 13.566406 -3.921875 L 14.96875 0 Z M 19.574219 0" transform="translate(7.163 196.875)"/></g></g></g><g fill="#5271FF"><g><g><path d="M 6.011719 -8.699219 L 12.164062 0 L 17.945312 0 L 10.1875 -9.730469 L 17.660156 -19.460938 L 12.164062 -19.460938 L 6.011719 -10.761719 L 6.011719 -19.460938 L 1.71875 -19.460938 L 1.71875 0 L 6.011719 0 Z M 6.011719 -8.699219" transform="translate(32.605 196.875)"/></g></g></g><g fill="#5271FF"><g><g><path d="M 12.304688 -7.441406 L 7.382812 -7.441406 L 9.84375 -14.367188 Z M 19.574219 0 L 11.675781 -19.460938 L 8.042969 -19.460938 L 0.144531 0 L 4.75 0 L 6.152344 -3.921875 L 13.566406 -3.921875 L 14.96875 0 Z M 19.574219 0" transform="translate(55.986 196.875)"/></g></g></g><g fill="#5271FF"><g><g><path d="M 9.273438 -3.035156 C 7.15625 -3.035156 5.324219 -4.09375 5.207031 -6.410156 L 0.859375 -6.410156 C 0.886719 -1.660156 4.808594 0.457031 9.101562 0.457031 C 13.078125 0.457031 17.171875 -1.230469 17.171875 -5.808594 C 17.171875 -13.222656 5.925781 -10.734375 5.925781 -14.195312 C 5.925781 -15.65625 7.613281 -16.226562 8.816406 -16.226562 C 10.960938 -16.226562 12.136719 -15.570312 12.363281 -13.539062 L 16.515625 -13.539062 C 16.371094 -17.972656 12.765625 -19.746094 8.757812 -19.746094 C 5.207031 -19.746094 1.488281 -17.859375 1.488281 -13.851562 C 1.488281 -6.667969 12.734375 -9.101562 12.734375 -5.324219 C 12.734375 -3.578125 10.617188 -3.035156 9.273438 -3.035156 Z M 9.273438 -3.035156" transform="translate(81.428 196.875)"/></g></g></g><g fill="#5271FF"><g><g><path d="M 12.421875 -19.460938 L 12.421875 -11.707031 L 6.011719 -11.707031 L 6.011719 -19.460938 L 1.71875 -19.460938 L 1.71875 0 L 6.011719 0 L 6.011719 -7.8125 L 12.421875 -7.8125 L 12.421875 0 L 17 0 L 17 -19.460938 Z M 12.421875 -19.460938" transform="translate(105.181 196.875)"/></g></g></g><g fill="#5271FF"><g><g><path d="M 9.273438 -3.035156 C 7.15625 -3.035156 5.324219 -4.09375 5.207031 -6.410156 L 0.859375 -6.410156 C 0.886719 -1.660156 4.808594 0.457031 9.101562 0.457031 C 13.078125 0.457031 17.171875 -1.230469 17.171875 -5.808594 C 17.171875 -13.222656 5.925781 -10.734375 5.925781 -14.195312 C 5.925781 -15.65625 7.613281 -16.226562 8.816406 -16.226562 C 10.960938 -16.226562 12.136719 -15.570312 12.363281 -13.539062 L 16.515625 -13.539062 C 16.371094 -17.972656 12.765625 -19.746094 8.757812 -19.746094 C 5.207031 -19.746094 1.488281 -17.859375 1.488281 -13.851562 C 1.488281 -6.667969 12.734375 -9.101562 12.734375 -5.324219 C 12.734375 -3.578125 10.617188 -3.035156 9.273438 -3.035156 Z M 9.273438 -3.035156" transform="translate(142.5 196.875)"/></g></g></g><g fill="#5271FF"><g><g><path d="M 6.011719 -6.953125 L 6.039062 -6.953125 L 10.675781 0 L 16.113281 0 L 10.53125 -7.15625 C 12.992188 -7.757812 14.96875 -9.929688 14.96875 -13.222656 C 14.96875 -16.914062 12.164062 -19.460938 9.015625 -19.460938 L 1.71875 -19.460938 L 1.71875 0 L 6.011719 0 Z M 8.300781 -16.085938 C 9.558594 -16.085938 10.875 -14.996094 10.875 -13.222656 C 10.875 -11.363281 9.558594 -10.332031 8.300781 -10.332031 L 6.011719 -10.332031 L 6.011719 -16.085938 Z M 8.300781 -16.085938" transform="translate(166.254 196.875)"/></g></g></g><g fill="#5271FF"><g><g><path d="M 6.011719 0 L 6.011719 -19.460938 L 1.71875 -19.460938 L 1.71875 0 Z M 6.011719 0" transform="translate(187.746 196.875)"/></g></g></g><g fill="#5271FF"><g><g><path d="M 19.574219 -19.460938 L 14.941406 -19.460938 L 10.902344 -8.527344 L 9.84375 -5.464844 L 8.785156 -8.527344 L 4.78125 -19.460938 L 0.144531 -19.460938 L 8.011719 0 L 11.707031 0 Z M 19.574219 -19.460938" transform="translate(201.197 196.875)"/></g></g></g><g fill="#5271FF"><g><g><path d="M 12.304688 -7.441406 L 7.382812 -7.441406 L 9.84375 -14.367188 Z M 19.574219 0 L 11.675781 -19.460938 L 8.042969 -19.460938 L 0.144531 0 L 4.75 0 L 6.152344 -3.921875 L 13.566406 -3.921875 L 14.96875 0 Z M 19.574219 0" transform="translate(226.64 196.875)"/></g></g></g><g fill="#5271FF"><g><g><path d="M 9.273438 -3.035156 C 7.15625 -3.035156 5.324219 -4.09375 5.207031 -6.410156 L 0.859375 -6.410156 C 0.886719 -1.660156 4.808594 0.457031 9.101562 0.457031 C 13.078125 0.457031 17.171875 -1.230469 17.171875 -5.808594 C 17.171875 -13.222656 5.925781 -10.734375 5.925781 -14.195312 C 5.925781 -15.65625 7.613281 -16.226562 8.816406 -16.226562 C 10.960938 -16.226562 12.136719 -15.570312 12.363281 -13.539062 L 16.515625 -13.539062 C 16.371094 -17.972656 12.765625 -19.746094 8.757812 -19.746094 C 5.207031 -19.746094 1.488281 -17.859375 1.488281 -13.851562 C 1.488281 -6.667969 12.734375 -9.101562 12.734375 -5.324219 C 12.734375 -3.578125 10.617188 -3.035156 9.273438 -3.035156 Z M 9.273438 -3.035156" transform="translate(252.081 196.875)"/></g></g></g><g fill="#5271FF"><g><g><path d="M 9.988281 -15.570312 L 15.539062 -15.570312 L 15.539062 -19.460938 L 0.144531 -19.460938 L 0.144531 -15.570312 L 5.695312 -15.570312 L 5.695312 0 L 9.988281 0 Z M 9.988281 -15.570312" transform="translate(275.834 196.875)"/></g></g></g><g fill="#5271FF"><g><g><path d="M 12.304688 -7.441406 L 7.382812 -7.441406 L 9.84375 -14.367188 Z M 19.574219 0 L 11.675781 -19.460938 L 8.042969 -19.460938 L 0.144531 0 L 4.75 0 L 6.152344 -3.921875 L 13.566406 -3.921875 L 14.96875 0 Z M 19.574219 0" transform="translate(297.241 196.875)"/></g></g></g><g fill="#5271FF"><g><g><path d="M 19.574219 -19.460938 L 14.941406 -19.460938 L 10.902344 -8.527344 L 9.84375 -5.464844 L 8.785156 -8.527344 L 4.78125 -19.460938 L 0.144531 -19.460938 L 8.011719 0 L 11.707031 0 Z M 19.574219 -19.460938" transform="translate(322.683 196.875)"/></g></g></g><g fill="#5271FF"><g><g><path d="M 12.304688 -7.441406 L 7.382812 -7.441406 L 9.84375 -14.367188 Z M 19.574219 0 L 11.675781 -19.460938 L 8.042969 -19.460938 L 0.144531 0 L 4.75 0 L 6.152344 -3.921875 L 13.566406 -3.921875 L 14.96875 0 Z M 19.574219 0" transform="translate(348.125 196.875)"/></g></g></g></svg>